<?xml version="1.0" encoding="UTF-8"?><svg id="a" xmlns="http://www.w3.org/2000/svg" viewBox="0 0 1920 1080"><path d="M651.98,58.07h456.77v485.23H19.78V58.07h579.49c-2.06.64-4.08,1.69-6.18,1.86-48.32,3.95-94.54,16.24-138.79,35.7-45.1,19.84-88.33,43.77-121.63,80.43-52.05,57.31-101.61,116.9-152.14,175.6-17.14,19.91-31.93,42.45-51.49,59.55-31.52,27.56-66.1,51.62-99.38,77.16-2.33,1.79-4.62,3.62-6.93,5.44,14.01,1.05,27.15.54,40.16-1,32.04-3.78,63.74-10.17,90.67-28.81,48.26-33.39,92.72-71.12,128.07-118.71,9.13-12.28,20.64-22.78,32.49-35.65,4.07,7.29,6.77,11.16,8.51,15.42,6.74,16.51,12.9,33.26,19.8,49.7,10.72,25.53,20.64,51.76,40.28,72.13,27.92,28.95,60.15,52.28,97.71,67.07,16.97,6.68,35.09,10.46,52.69,15.56.36-1.08.71-2.16,1.07-3.24-4.36-2.54-8.77-5-13.07-7.62-42.14-25.68-78.29-57.46-102.53-101.25-19.66-35.53-27.61-73.52-22.36-113.85,6.02-46.23,30.08-82.03,65.47-111.22,34.09-28.1,74.54-36.59,117.63-40.57-9.94,13.93-19.62,26.28-27.94,39.48-11.52,18.27-23.12,37.77-21.08,59.86,4.29,46.7,20.98,89.3,51.51,125.35,21.69,25.63,50.39,29.92,77.13,10.98,37.88-26.83,59.99-64.15,60.46-110.89.25-24.84-5.58-49.82-9.38-74.62-2.94-19.24-6.99-38.31-10.64-57.96,3.05,0,4.92-.35,6.6.05,60.65,14.63,112.71,43.61,152.06,92.88,25.79,32.29,37.16,69.36,30.27,110.47-6.87,40.97-25.02,77.37-49.25,110.87-1.57,2.18-2.9,4.53-4.69,7.34,8.5,2.13,15.81,3.96,24.29,6.09,16.6-25.27,33.12-49.77,48.95-74.7,36.37-57.24,42.29-117.39,16.56-180.47-3.05-7.48-4.6-15.56-7.33-25.08,58.02,8.5,113.93,16.69,169.84,24.88-2.06-2.9-4.56-4.2-7.15-5.28-88.62-36.91-177.08-74.19-265.94-110.52-36.3-14.84-72.95-29.17-112.19-34.88-16.49-2.4-32.95-5.04-49.42-7.56Z" style="fill:#fff; fill-rule:evenodd;"/><path d="M651.98,58.07c16.48,2.53,32.93,5.17,49.42,7.56,39.24,5.72,75.89,20.04,112.19,34.88,88.85,36.33,177.32,73.6,265.94,110.52,2.59,1.08,5.09,2.38,7.15,5.28-55.91-8.19-111.82-16.38-169.84-24.88,2.73,9.51,4.28,17.6,7.33,25.08,25.73,63.08,19.82,123.23-16.56,180.47-15.84,24.93-32.36,49.43-48.95,74.7-8.48-2.13-15.79-3.96-24.29-6.09,1.79-2.82,3.12-5.17,4.69-7.34,24.22-33.5,42.37-69.9,49.25-110.87,6.89-41.11-4.48-78.18-30.27-110.47-39.35-49.27-91.41-78.25-152.06-92.88-1.68-.41-3.55-.05-6.6-.05,3.65,19.65,7.69,38.72,10.64,57.96,3.8,24.8,9.63,49.77,9.38,74.62-.47,46.74-22.57,84.06-60.46,110.89-26.74,18.94-55.43,14.65-77.13-10.98-30.53-36.05-47.22-78.65-51.51-125.35-2.03-22.09,9.56-41.59,21.08-59.86,8.32-13.2,18-25.54,27.94-39.48-43.09,3.98-83.54,12.47-117.63,40.57-35.4,29.18-59.45,64.99-65.47,111.22-5.25,40.33,2.69,78.32,22.36,113.85,24.24,43.8,60.39,75.57,102.53,101.25,4.31,2.62,8.71,5.08,13.07,7.62-.35,1.08-.71,2.16-1.07,3.24-17.6-5.1-35.72-8.88-52.69-15.56-37.56-14.79-69.79-38.12-97.71-67.07-19.64-20.37-29.56-46.59-40.28-72.13-6.9-16.44-13.05-33.19-19.8-49.7-1.74-4.26-4.45-8.13-8.51-15.42-11.85,12.87-23.36,23.37-32.49,35.65-35.35,47.59-79.81,85.33-128.07,118.71-26.93,18.63-58.63,25.03-90.67,28.81-13.02,1.53-26.15,2.04-40.16,1,2.31-1.82,4.59-3.66,6.93-5.44,33.28-25.54,67.86-49.6,99.38-77.16,19.56-17.11,34.35-39.64,51.49-59.55,50.53-58.7,100.09-118.28,152.14-175.6,33.29-36.66,76.52-60.59,121.63-80.43,44.26-19.46,90.47-31.75,138.79-35.7,2.1-.17,4.12-1.22,6.18-1.86h52.71Z" style="fill-rule:evenodd;"/><polygon points="743.68 434.8 1117.75 1015.93 1379.72 1021.93 743.68 434.8" style="fill:#eb008b;"/><polyline points="743.68 434.8 1786.97 879.8 1621.09 981.61" style="fill:#fff100;"/><line x1="1379.72" y1="1021.93" x2="743.68" y2="434.8" style="fill:#2baae1;"/><polygon points="1379.72 1021.93 1622.24 981.61 743.68 434.8 1379.72 1021.93" style="fill:#2baae1;"/><polyline points="1900.22 743.67 743.68 434.8 1786.97 879.8" style="fill:#231f20;"/><path d="M1125.74,202.94c-9.27,0-17.2-3.31-23.8-9.92-6.6-6.61-9.9-14.55-9.9-23.82s3.3-17.2,9.9-23.8c6.6-6.6,14.53-9.9,23.8-9.9s17.2,3.3,23.82,9.9c6.61,6.6,9.92,14.53,9.92,23.8s-3.31,17.24-9.92,23.84c-6.61,6.6-14.55,9.9-23.82,9.9ZM1125.74,141.05c-7.72,0-14.32,2.75-19.8,8.25-5.48,5.5-8.22,12.13-8.22,19.88s2.74,14.39,8.22,19.92c5.48,5.53,12.08,8.3,19.8,8.3s14.32-2.76,19.82-8.3c5.5-5.53,8.25-12.17,8.25-19.92s-2.74-14.38-8.22-19.88-12.09-8.25-19.84-8.25ZM1111,187.88v-36.28h12.42c3.99,0,6.9.25,8.71.76,1.82.51,3.42,1.6,4.8,3.27,1.39,1.67,2.08,3.6,2.08,5.78,0,2.72-.95,5.03-2.84,6.94-1.89,1.91-4.43,2.99-7.62,3.22v.17c2.32.61,5.17,3.63,8.55,9.06l4.36,7.07h-7.16l-3.3-5.67c-2.32-4.02-4.11-6.65-5.36-7.89-1.25-1.24-3.02-1.85-5.32-1.85h-3.49v15.42h-5.85ZM1116.85,167.46h7.15c3.04,0,5.26-.44,6.66-1.32,1.4-.88,2.1-2.28,2.1-4.2,0-2.03-.69-3.45-2.08-4.24-1.39-.79-3.76-1.19-7.13-1.19h-6.7v10.95Z" style="fill:#231f20;"/></svg>